<svg width="32" height="32" viewBox="0 0 32 32" fill="none" xmlns="http://www.w3.org/2000/svg">
<g id="forward--5">
<path id="Vector" fill-rule="evenodd" clip-rule="evenodd" d="M24.3147 23.5557C25.4135 21.9112 26 19.9778 26 18H28C28 20.3734 27.2962 22.6935 25.9776 24.6668C24.6591 26.6402 22.7849 28.1783 20.5922 29.0866C18.3995 29.9948 15.9867 30.2324 13.6589 29.7694C11.3312 29.3064 9.19295 28.1635 7.51472 26.4853C5.83649 24.8071 4.6936 22.6689 4.23058 20.3411C3.76756 18.0133 4.0052 15.6005 4.91345 13.4078C5.8217 11.2151 7.35977 9.34094 9.33316 8.02236C11.3066 6.70379 13.6266 6 16 6H20V1L26 7L20 13V8H16C14.0222 8 12.0888 8.58649 10.4443 9.6853C8.79981 10.7841 7.51809 12.3459 6.76121 14.1732C6.00433 16.0004 5.8063 18.0111 6.19215 19.9509C6.578 21.8907 7.53041 23.6725 8.92894 25.0711C10.3275 26.4696 12.1093 27.422 14.0491 27.8079C15.9889 28.1937 17.9996 27.9957 19.8268 27.2388C21.6541 26.4819 23.2159 25.2002 24.3147 23.5557ZM15.13 15.5801H18.58L18.56 14.3201H14.04L13.75 18.6301L14.94 18.8001C15.0781 18.6452 15.2402 18.5136 15.42 18.4101C15.6548 18.2794 15.9216 18.217 16.19 18.2301C16.361 18.215 16.5333 18.2374 16.6947 18.2957C16.8562 18.354 17.003 18.4469 17.1249 18.5678C17.2468 18.6888 17.3408 18.8348 17.4004 18.9958C17.46 19.1569 17.4837 19.3289 17.47 19.5001V19.5601C17.4933 19.9235 17.375 20.2819 17.14 20.5601C17.0084 20.6877 16.8512 20.7858 16.6788 20.8478C16.5064 20.9099 16.3227 20.9345 16.14 20.9201C15.9533 20.9274 15.7668 20.9003 15.59 20.8401C15.4363 20.7891 15.2913 20.7149 15.16 20.6201C15.0321 20.5223 14.9178 20.4079 14.82 20.2801L14.55 19.8701L13.49 20.6801C13.6112 20.8745 13.7483 21.0584 13.9 21.2301C14.0605 21.406 14.2458 21.5576 14.45 21.6801C14.6811 21.8195 14.93 21.9272 15.19 22.0001C15.4975 22.0759 15.8133 22.1128 16.13 22.1101C16.5424 22.1213 16.9531 22.0534 17.34 21.9101C17.6729 21.7932 17.9766 21.6056 18.23 21.3601C18.4715 21.1228 18.659 20.8363 18.78 20.5201C18.9109 20.1788 18.9754 19.8156 18.97 19.4501C18.9731 19.1084 18.912 18.7692 18.79 18.4501C18.6773 18.1622 18.5071 17.9002 18.29 17.6801C18.0809 17.4685 17.8284 17.3048 17.55 17.2001C17.2558 17.0903 16.9439 17.0361 16.63 17.0401C16.4271 17.0361 16.2248 17.0631 16.03 17.1201C15.8718 17.1723 15.7232 17.25 15.59 17.3501C15.4629 17.4493 15.3516 17.5673 15.26 17.7001C15.1653 17.8453 15.0785 17.9955 15 18.1501L15.13 15.5801Z" fill="#19191C"/>
</g>
</svg>
