<svg width="32" height="32" viewBox="0 0 32 32" fill="none" xmlns="http://www.w3.org/2000/svg">
<g id="play--filled">
<path id="Vector" d="M16 2C13.2311 2 10.5243 2.82109 8.22202 4.35943C5.91973 5.89777 4.12532 8.08427 3.06569 10.6424C2.00607 13.2006 1.72882 16.0155 2.26901 18.7313C2.80921 21.447 4.14258 23.9416 6.10051 25.8995C8.05845 27.8574 10.553 29.1908 13.2687 29.731C15.9845 30.2712 18.7994 29.9939 21.3576 28.9343C23.9157 27.8747 26.1022 26.0803 27.6406 23.778C29.1789 21.4757 30 18.7689 30 16C30 12.287 28.525 8.72601 25.8995 6.1005C23.274 3.475 19.713 2 16 2ZM23.4473 16.8945L11.4473 22.8945C11.2948 22.9708 11.1254 23.0068 10.9551 22.9991C10.7848 22.9915 10.6193 22.9404 10.4743 22.8508C10.3293 22.7611 10.2096 22.6359 10.1266 22.487C10.0435 22.3381 9.99999 22.1705 10 22V10C9.99999 9.82953 10.0435 9.66188 10.1266 9.51297C10.2096 9.36407 10.3293 9.23886 10.4743 9.14924C10.6193 9.05961 10.7848 9.00855 10.9551 9.00089C11.1254 8.99324 11.2948 9.02925 11.4473 9.1055L23.4473 15.1055C23.6134 15.1885 23.7532 15.3162 23.8508 15.4742C23.9485 15.6322 24.0002 15.8143 24.0002 16C24.0002 16.1857 23.9485 16.3678 23.8508 16.5258C23.7532 16.6838 23.6134 16.8115 23.4473 16.8945Z" fill="#19191C"/>
</g>
</svg>
