<svg width="32" height="32" viewBox="0 0 32 32" fill="none" xmlns="http://www.w3.org/2000/svg">
<g id="rewind--5">
<path id="Vector" fill-rule="evenodd" clip-rule="evenodd" d="M6.02236 24.6668C4.70379 22.6935 4 20.3734 4 18H6C6 19.9778 6.58649 21.9112 7.6853 23.5557C8.78412 25.2002 10.3459 26.4819 12.1732 27.2388C14.0004 27.9957 16.0111 28.1937 17.9509 27.8079C19.8907 27.422 21.6725 26.4696 23.0711 25.0711C24.4696 23.6725 25.422 21.8907 25.8079 19.9509C26.1937 18.0111 25.9957 16.0004 25.2388 14.1732C24.4819 12.3459 23.2002 10.7841 21.5557 9.6853C19.9112 8.58649 17.9778 8 16 8H12V13L6 7L12 1V6H16C18.3734 6 20.6935 6.70379 22.6668 8.02236C24.6402 9.34094 26.1783 11.2151 27.0866 13.4078C27.9948 15.6005 28.2324 18.0133 27.7694 20.3411C27.3064 22.6689 26.1635 24.8071 24.4853 26.4853C22.8071 28.1635 20.6689 29.3064 18.3411 29.7694C16.0133 30.2324 13.6005 29.9948 11.4078 29.0866C9.21509 28.1783 7.34094 26.6402 6.02236 24.6668ZM15.1302 15.5798H18.5802L18.5602 14.3198H14.0402L13.7502 18.6298L14.9402 18.7998C15.0783 18.645 15.2404 18.5133 15.4202 18.4098C15.6551 18.2791 15.9218 18.2168 16.1902 18.2298C16.3613 18.2147 16.5335 18.2371 16.695 18.2955C16.8565 18.3538 17.0033 18.4467 17.1251 18.5676C17.247 18.6885 17.341 18.8346 17.4006 18.9956C17.4602 19.1566 17.484 19.3287 17.4702 19.4998V19.5598C17.4935 19.9233 17.3752 20.2816 17.1402 20.5598C17.0087 20.6874 16.8515 20.7855 16.679 20.8476C16.5066 20.9097 16.3229 20.9343 16.1402 20.9198C15.9535 20.9272 15.7671 20.9001 15.5902 20.8398C15.4365 20.7888 15.2915 20.7146 15.1602 20.6198C15.0324 20.522 14.918 20.4077 14.8202 20.2798L14.5502 19.8698L13.4902 20.6798C13.6114 20.8742 13.7486 21.0582 13.9002 21.2298C14.0607 21.4058 14.246 21.5574 14.4502 21.6798C14.6814 21.8193 14.9303 21.9269 15.1902 21.9998C15.4977 22.0756 15.8135 22.1126 16.1302 22.1098C16.5426 22.121 16.9534 22.0532 17.3402 21.9098C17.6732 21.793 17.9768 21.6054 18.2302 21.3598C18.4717 21.1225 18.6593 20.836 18.7802 20.5198C18.9111 20.1785 18.9756 19.8153 18.9702 19.4498C18.9733 19.1082 18.9123 18.769 18.7902 18.4498C18.6775 18.1619 18.5074 17.8999 18.2902 17.6798C18.0811 17.4683 17.8287 17.3045 17.5502 17.1998C17.2561 17.0901 16.9442 17.0358 16.6302 17.0398C16.4273 17.0359 16.225 17.0629 16.0302 17.1198C15.872 17.172 15.7234 17.2497 15.5902 17.3498C15.4631 17.4491 15.3518 17.5671 15.2602 17.6998C15.1656 17.8451 15.0788 17.9953 15.0002 18.1498L15.1302 15.5798Z" fill="#19191C"/>
</g>
</svg>
