<svg width="16" height="16" viewBox="0 0 16 16" fill="none" xmlns="http://www.w3.org/2000/svg">
<path d="M4.49986 12.3334L4.49986 7.33337L1.99986 7.33337C1.90099 7.33335 1.80434 7.30402 1.72213 7.24908C1.63993 7.19413 1.57586 7.11605 1.53802 7.0247C1.50019 6.93335 1.49029 6.83283 1.50957 6.73586C1.52885 6.63888 1.57646 6.5498 1.64636 6.47987L7.64636 0.479872C7.69277 0.433424 7.74787 0.396577 7.80853 0.371436C7.86919 0.346296 7.9342 0.333356 7.99986 0.333356C8.06552 0.333356 8.13054 0.346296 8.19119 0.371436C8.25185 0.396576 8.30695 0.433424 8.35336 0.479872L14.3534 6.47987C14.4233 6.5498 14.4709 6.63888 14.4902 6.73586C14.5094 6.83283 14.4995 6.93335 14.4617 7.0247C14.4239 7.11605 14.3598 7.19413 14.2776 7.24907C14.1954 7.30402 14.0987 7.33335 13.9999 7.33337L11.4999 7.33337L11.4999 12.3334C11.4996 12.5985 11.3941 12.8527 11.2066 13.0401C11.0192 13.2276 10.765 13.3331 10.4999 13.3334L5.49986 13.3334C5.23476 13.333 4.98061 13.2275 4.79315 13.0401C4.60569 12.8526 4.50022 12.5985 4.49986 12.3334Z" fill="white"/>
</svg>
