<svg width="16" height="16" viewBox="0 0 16 16" fill="none" xmlns="http://www.w3.org/2000/svg">
<path d="M4.49995 12.3333L4.49995 7.33325L1.99995 7.33325C1.90108 7.33323 1.80443 7.3039 1.72222 7.24895C1.64002 7.19401 1.57595 7.11593 1.53811 7.02458C1.50028 6.93323 1.49038 6.83271 1.50966 6.73574C1.52895 6.63876 1.57655 6.54968 1.64645 6.47975L7.64645 0.47975C7.69286 0.433302 7.74797 0.396454 7.80862 0.371314C7.86928 0.346174 7.93429 0.333234 7.99995 0.333234C8.06561 0.333234 8.13063 0.346174 8.19128 0.371314C8.25194 0.396454 8.30705 0.433302 8.35345 0.47975L14.3535 6.47975C14.4234 6.54968 14.471 6.63876 14.4902 6.73574C14.5095 6.83271 14.4996 6.93323 14.4618 7.02458C14.424 7.11593 14.3599 7.19401 14.2777 7.24895C14.1955 7.30389 14.0988 7.33323 14 7.33325L11.5 7.33325L11.5 12.3333C11.4996 12.5984 11.3942 12.8526 11.2067 13.04C11.0193 13.2275 10.7651 13.3329 10.5 13.3333L5.49995 13.3333C5.23485 13.3329 4.9807 13.2274 4.79324 13.04C4.60578 12.8525 4.50031 12.5984 4.49995 12.3333Z" fill="url(#paint0_linear_553_23217)"/>
<defs>
<linearGradient id="paint0_linear_553_23217" x1="7.99995" y1="13.3333" x2="7.99995" y2="0.333234" gradientUnits="userSpaceOnUse">
<stop stop-color="#C2D9FF"/>
<stop offset="0.915" stop-color="#004DC7"/>
</linearGradient>
</defs>
</svg>
